<svg width="208" height="27" viewBox="0 0 208 27" fill="none" xmlns="http://www.w3.org/2000/svg">
<path fill-rule="evenodd" clip-rule="evenodd" d="M17.1298 24.2258C9.89114 24.2258 3.71249 19.1387 3.71249 13.59C3.71249 8.06178 9.76182 2.87358 17.0778 2.87358C21.887 2.87358 25.3499 4.67635 28.1684 7.50082H31.7098C30.6498 6.01836 29.5125 4.65665 27.7805 3.59468C24.8072 1.73197 20.9552 0.630615 17.1298 0.630615C7.95243 0.630615 0.481689 6.49966 0.481689 13.5703C0.481689 20.6606 8.05633 26.4697 17.1817 26.4697C20.9044 26.4697 24.5497 25.4086 27.471 23.6255C29.3069 22.4839 30.599 21.0014 31.8402 19.4787H28.2989C25.5058 22.3032 21.9389 24.2258 17.1298 24.2258ZM53.8391 10.7055C51.6163 8.48228 48.5911 7.08031 44.843 7.08031C38.1217 7.08031 32.5896 11.3076 32.5896 16.5155C32.5896 21.7225 38.1482 25.9892 44.843 25.9892C48.747 25.9892 51.4605 24.7269 53.8391 22.4034V25.5679H56.7604V7.52051H53.8391V10.7055ZM44.6883 23.9055C39.5431 23.9055 35.4844 20.4405 35.4844 16.5352C35.4844 12.6488 39.5177 9.16399 44.6883 9.16399C49.8324 9.16399 53.8391 12.6496 53.8391 16.5352C53.8391 20.4405 49.8059 23.9055 44.6883 23.9055ZM60.3018 25.5679H63.4309V1.15046H60.3018V25.5679ZM75.2444 22.7031L67.3337 7.52051H64.2312L73.7191 25.5679H76.8725L86.335 7.52051H83.2844L75.2444 22.7031ZM87.6271 25.5679H90.7551V7.52051H87.6271V25.5679ZM87.6271 5.19705H90.7551V1.15046H87.6271V5.19705ZM104.224 7.07946C101.277 7.07946 99.1831 8.28187 97.2444 9.88424V7.52051H94.3485V25.5679H97.4245V14.5706C97.3991 11.6664 100.501 9.16313 104.275 9.16313C109.005 9.16313 111.383 12.3482 111.383 15.6334V25.5687H114.278V15.6334C114.279 10.9462 110.739 7.07946 104.224 7.07946ZM143.311 1.15046L129.093 15.1521V1.15046H126.017V25.5679H129.093V18.8578L133.126 14.9722L143.389 25.5679H147.294L135.09 13.0487L147.294 1.15046H143.311ZM148.43 25.5679H151.482V1.15046H148.43V25.5679ZM176.738 12.0673C174.618 9.00213 170.378 7.07946 165.905 7.07946C159.236 7.07946 153.599 11.3864 153.599 16.554C153.599 21.7611 159.287 25.9884 165.959 25.9884C169.137 25.9884 172.267 25.0069 174.566 23.3043C175.963 22.2826 176.79 21.0006 177.538 19.6586H174.256C172.601 22.1627 169.679 23.9047 165.904 23.9047C163.605 23.9047 161.355 23.1836 159.65 21.9615C157.89 20.7205 157.115 19.1969 156.778 17.395H178.263C178.264 15.5126 177.927 13.7099 176.738 12.0673ZM156.883 15.3122C157.816 11.9277 161.252 9.16313 165.959 9.16313C169.914 9.16313 174.154 11.0464 175.084 15.3122H156.883ZM180.539 25.5679H183.614V7.52051H180.539V25.5679ZM180.539 5.27755H183.614V1.15046H180.539V5.27755ZM197.136 7.07946C194.135 7.07946 192.042 8.28187 190.077 9.88424V7.52051H187.13V25.5679H190.232V14.5706C190.207 11.6467 193.387 9.16313 197.186 9.16313C201.892 9.16313 204.375 12.3482 204.375 15.6334V25.5687H207.27V15.6334C207.27 10.9462 203.675 7.07946 197.136 7.07946Z" fill="white"/>
</svg>
